<svg width="310" height="16" viewBox="0 0 310 16" fill="none" xmlns="http://www.w3.org/2000/svg">
<path d="M220.52 12.779C217.998 12.779 215.935 10.97 215.935 8.05792C215.935 5.34438 217.654 3.3368 220.52 3.3368C221.781 3.3368 222.927 3.84421 223.798 4.68254C223.959 4.81491 224.234 4.81491 224.417 4.68254L226.205 2.98382C226.343 2.85145 226.343 2.54259 226.251 2.38816C224.807 1.04242 222.721 0.115845 220.52 0.115845C215.774 0.115845 212.381 3.40298 212.381 8.05792C212.381 12.9114 216.026 16 220.52 16C222.721 16 224.807 15.0734 226.251 13.7497C226.366 13.6394 226.32 13.3306 226.251 13.1762L224.509 11.4995C224.28 11.323 223.959 11.3009 223.798 11.4333C222.927 12.2716 221.781 12.779 220.52 12.779Z" fill="#EA8025"/>
<path d="M236.742 15.5367V15.5146C236.788 15.6691 236.994 15.7794 237.178 15.7794H239.952C240.296 15.7794 240.479 15.5146 240.364 15.2499L234.289 0.24819C234.129 -0.0827299 233.556 -0.0827299 233.395 0.24819C231.424 5.10168 229.292 10.3964 227.32 15.2499C227.205 15.5146 227.366 15.7794 227.756 15.7794H230.484C230.713 15.7794 230.919 15.6691 230.965 15.5146V15.5367L231.538 14.0145H236.123L236.742 15.5367ZM233.281 9.05066C233.51 8.38882 233.693 7.72698 233.854 6.91071C233.991 7.68286 234.175 8.32264 234.404 9.05066L235.206 11.345H232.455L233.281 9.05066Z" fill="#EA8025"/>
<path d="M254.794 15.7792C255.161 15.7792 255.367 15.4704 255.161 15.1836V15.2056L251.309 9.24908C252.822 8.74167 254.473 7.59448 254.473 4.99124C254.473 0.336304 248.902 0.336304 248.902 0.336304H243.813C243.538 0.336304 243.331 0.534856 243.331 0.733408V3.22634V4.43833C243.331 4.99124 243.331 5.3001 243.33 5.85164L243.332 6.23081C243.331 6.40317 243.331 6.64584 243.331 6.8444V15.4042C243.331 15.5807 243.538 15.7792 243.813 15.7792H246.358C246.656 15.7792 246.839 15.5807 246.839 15.4042V9.66825H247.527L251.378 15.5807L251.355 15.5586C251.401 15.6689 251.653 15.7792 251.791 15.7792H254.794ZM246.769 3.55726H248.902C249.338 3.55726 250.943 3.55726 250.943 4.99124C250.943 6.07225 250.071 6.38111 249.338 6.42523H246.769V3.55726Z" fill="#EA8025"/>
<path d="M296.062 15.7792C296.429 15.7792 296.636 15.4704 296.429 15.1836V15.2056L292.578 9.24908C294.091 8.74167 295.741 7.59448 295.741 4.99124C295.741 0.336304 290.171 0.336304 290.171 0.336304H285.081C284.806 0.336304 284.6 0.534856 284.6 0.733408V3.22634V4.43833C284.6 4.99124 284.6 5.3001 284.598 5.85164L284.6 6.23081C284.6 6.40317 284.6 6.64584 284.6 6.8444V15.4042C284.6 15.5807 284.806 15.7792 285.081 15.7792H287.626C287.924 15.7792 288.107 15.5807 288.107 15.4042V9.66825H288.795L292.647 15.5807L292.624 15.5586C292.669 15.6689 292.922 15.7792 293.059 15.7792H296.062ZM288.037 3.55726H290.171C290.606 3.55726 292.211 3.55726 292.211 4.99124C292.211 6.07225 291.34 6.38111 290.606 6.42523H288.037V3.55726Z" fill="#EA8025"/>
<path d="M267.542 3.49107C267.817 3.49107 268.023 3.29252 268.023 3.09397V0.733408C268.023 0.534856 267.817 0.336304 267.542 0.336304H257.569C257.271 0.336304 257.088 0.534856 257.088 0.733408V15.4042C257.088 15.5807 257.271 15.7792 257.569 15.7792H267.725C268.023 15.7792 268.229 15.5807 268.229 15.4042V12.9554C268.229 12.7568 268.023 12.5583 267.725 12.5583H260.595V9.60206H266.464C266.739 9.60206 266.923 9.40351 266.923 9.22702V6.8444C266.923 6.64584 266.739 6.44729 266.464 6.44729H260.595V3.49107H267.542Z" fill="#EA8025"/>
<path d="M281.294 3.49107C281.569 3.49107 281.776 3.29252 281.776 3.09397V0.733408C281.776 0.534856 281.569 0.336304 281.294 0.336304H271.322C271.024 0.336304 270.84 0.534856 270.84 0.733408V15.4042C270.84 15.5807 271.024 15.7792 271.322 15.7792H281.478C281.776 15.7792 281.982 15.5807 281.982 15.4042V12.9554C281.982 12.7568 281.776 12.5583 281.478 12.5583H274.348V9.60206H280.217C280.492 9.60206 280.675 9.40351 280.675 9.22702V6.8444C280.675 6.64584 280.492 6.44729 280.217 6.44729H274.348V3.49107H281.294Z" fill="#EA8025"/>
<path d="M304.75 16C307.455 16 310 14.3013 310 11.2789C310 9.3816 309.037 7.79319 307.226 6.99898C306.057 6.46951 304.865 6.46951 304.75 6.46951C303.856 6.46951 303.008 5.9621 303.008 4.9914C303.008 3.88833 303.81 3.3368 304.75 3.3368C305.644 3.3368 306.401 3.80009 306.447 4.72666C306.447 4.88109 306.699 5.10171 306.951 5.10171H309.45C309.748 5.10171 309.954 4.88109 309.954 4.72666C309.908 1.99106 307.639 0.115845 304.75 0.115845C302.068 0.115845 299.5 1.969 299.5 4.9914C299.5 6.88867 300.509 8.3006 302.251 9.0948C303.466 9.62428 304.613 9.62428 304.75 9.62428C305.553 9.69046 306.492 10.2861 306.492 11.2789C306.492 12.1834 305.69 12.779 304.75 12.779C303.856 12.779 303.054 12.2937 303.008 11.3451C303.008 11.1465 302.779 10.948 302.526 10.948H299.982C299.707 10.948 299.5 11.1465 299.5 11.3451C299.546 14.3013 301.839 15.9338 304.75 16Z" fill="#EA8025"/>
<path d="M9.31715 3.07323C9.31177 3.12776 9.29528 3.18058 9.2687 3.2284C9.24211 3.27622 9.20602 3.31801 9.16267 3.35116C9.11931 3.38431 9.06963 3.4081 9.01673 3.42105C8.96382 3.43401 8.90883 3.43584 8.8552 3.42644H6.29943V15.2785C6.29566 15.3322 6.28127 15.3847 6.2571 15.4327C6.23293 15.4808 6.19946 15.5235 6.15867 15.5584C6.11788 15.5932 6.07057 15.6195 6.01954 15.6358C5.9685 15.652 5.91476 15.6578 5.86147 15.6528H3.46169C3.40808 15.6596 3.35366 15.655 3.3019 15.6395C3.25013 15.6239 3.20214 15.5977 3.16096 15.5625C3.11978 15.5273 3.08632 15.4839 3.0627 15.435C3.03907 15.3861 3.0258 15.3328 3.02373 15.2785V3.42644H0.461958C0.35419 3.44105 0.24506 3.41208 0.158473 3.34588C0.0718862 3.27968 0.014901 3.18164 0 3.07323V0.863423C0.0114017 0.75 0.0657397 0.645344 0.151748 0.571152C0.237756 0.496961 0.348836 0.458926 0.461958 0.464933H8.86119C8.91764 0.459988 8.9745 0.466425 9.02844 0.483868C9.08239 0.501312 9.13233 0.529411 9.17535 0.56652C9.21837 0.603628 9.2536 0.649002 9.27898 0.699983C9.30436 0.750964 9.31938 0.806529 9.32315 0.863423V3.07323H9.31715Z" fill="#231F20"/>
<path d="M22.5633 0.353199C22.6701 0.347169 22.7751 0.382657 22.8566 0.452327C22.9381 0.521998 22.9899 0.620524 23.0013 0.727538V15.2785C22.9866 15.3843 22.934 15.4811 22.8534 15.5507C22.7727 15.6202 22.6695 15.6576 22.5633 15.6558H20.1455C20.0356 15.6623 19.9273 15.6272 19.8418 15.5574C19.7563 15.4875 19.6999 15.3881 19.6836 15.2785V9.443H14.653V15.2785C14.6368 15.3881 14.5803 15.4875 14.4948 15.5574C14.4093 15.6272 14.301 15.6623 14.1911 15.6558H11.7913C11.6814 15.6623 11.573 15.6272 11.4876 15.5574C11.4021 15.4875 11.3456 15.3881 11.3293 15.2785V0.730557C11.3429 0.619979 11.3987 0.519059 11.485 0.449183C11.5712 0.379306 11.6811 0.345963 11.7913 0.356218H14.1911C14.3013 0.345963 14.4112 0.379306 14.4974 0.449183C14.5837 0.519059 14.6395 0.619979 14.653 0.730557V6.32451H19.6866V0.730557C19.7001 0.619979 19.756 0.519059 19.8422 0.449183C19.9284 0.379306 20.0383 0.345963 20.1485 0.356218H22.5663L22.5633 0.353199Z" fill="#231F20"/>
<path d="M29.8157 3.47172V6.49059H35.3292C35.383 6.4834 35.4377 6.48761 35.4899 6.50295C35.542 6.51829 35.5904 6.54441 35.6319 6.57965C35.6734 6.6149 35.7071 6.65847 35.7309 6.7076C35.7547 6.75672 35.7681 6.81031 35.7701 6.86493V9.18643C35.7668 9.24071 35.7526 9.29374 35.7284 9.34236C35.7042 9.39098 35.6705 9.4342 35.6293 9.46942C35.5882 9.50465 35.5404 9.53116 35.4888 9.54738C35.4372 9.56359 35.3829 9.56917 35.3292 9.56379H29.8157V12.5585H36.5171C36.5734 12.5513 36.6306 12.5554 36.6854 12.5705C36.7401 12.5855 36.7914 12.6113 36.8363 12.6464C36.8811 12.6814 36.9187 12.7251 36.9468 12.7747C36.9749 12.8244 36.993 12.8792 37 12.9359V15.2785C36.9815 15.3911 36.9215 15.4925 36.832 15.5624C36.7425 15.6324 36.63 15.6658 36.5171 15.6559H26.9599C26.8527 15.6618 26.7473 15.6259 26.6657 15.5556C26.5841 15.4853 26.5326 15.3861 26.522 15.2785V0.730594C26.5257 0.676865 26.5401 0.624434 26.5643 0.576377C26.5885 0.528319 26.6219 0.485604 26.6627 0.450736C26.7035 0.415868 26.7508 0.38955 26.8019 0.373326C26.8529 0.357102 26.9066 0.351298 26.9599 0.356255H36.5171C36.6304 0.341693 36.7448 0.372906 36.8353 0.443063C36.9259 0.51322 36.9851 0.616606 37 0.730594V3.09738C36.9815 3.20994 36.9215 3.31134 36.832 3.3813C36.7425 3.45126 36.63 3.48463 36.5171 3.47474H29.8157V3.47172Z" fill="#231F20"/>
<path d="M57.5959 11.3872C57.6819 11.3206 57.7873 11.2845 57.8959 11.2845C58.0044 11.2845 58.1098 11.3206 58.1958 11.3872L59.8667 13.0898C59.943 13.1716 59.9855 13.2795 59.9855 13.3917C59.9855 13.5039 59.943 13.6119 59.8667 13.6936C58.4302 15.0963 56.5077 15.8813 54.5062 15.8823C50.3065 15.8823 46.8599 12.8302 46.8599 8.0785C46.8599 3.5019 50.0246 0.141907 54.5062 0.141907C56.5207 0.15599 58.4531 0.946875 59.9057 2.35172C59.9526 2.44188 59.9733 2.54356 59.9653 2.64504C59.9574 2.74651 59.9211 2.84366 59.8607 2.9253L58.1898 4.60681C58.1036 4.67291 57.9982 4.70871 57.8899 4.70871C57.7815 4.70871 57.6761 4.67291 57.5899 4.60681C56.7703 3.77217 55.657 3.29604 54.4912 3.28153C51.8124 3.28153 50.2076 5.39473 50.2076 8.0785C50.2076 10.9525 52.1394 12.7004 54.4912 12.7004C55.6579 12.6929 56.7742 12.2208 57.5959 11.3872Z" fill="#231F20"/>
<path d="M65.5621 5.81436C65.5621 6.49171 65.8295 7.14132 66.3054 7.62028C66.7813 8.09924 67.4268 8.36832 68.0999 8.36832C68.7729 8.36832 69.4184 8.09924 69.8943 7.62028C70.3703 7.14132 70.6376 6.49171 70.6376 5.81436C70.6376 5.13701 70.3703 4.4874 69.8943 4.00844C69.4184 3.52948 68.7729 3.2604 68.0999 3.2604C67.4268 3.2604 66.7813 3.52948 66.3054 4.00844C65.8295 4.4874 65.5621 5.13701 65.5621 5.81436ZM73.3404 15.2785C73.3219 15.3911 73.2619 15.4924 73.1724 15.5624C73.0828 15.6324 72.9703 15.6657 72.8574 15.6559H63.2343C63.1236 15.6661 63.0133 15.6323 62.927 15.5618C62.8407 15.4913 62.7852 15.3896 62.7723 15.2785V12.8453C62.7761 12.7884 62.7911 12.7328 62.8165 12.6819C62.8419 12.6309 62.8771 12.5855 62.9201 12.5484C62.9632 12.5113 63.0131 12.4832 63.067 12.4657C63.121 12.4483 63.1778 12.4419 63.2343 12.4468H72.8574C72.9737 12.4366 73.0893 12.4726 73.1795 12.5471C73.2698 12.6215 73.3275 12.7286 73.3404 12.8453V15.2785ZM62.2024 5.81436C62.2372 4.26305 62.8739 2.78707 63.9764 1.70229C65.0789 0.617516 66.5595 0.0101318 68.1014 0.0101318C69.6432 0.0101318 71.1238 0.617516 72.2263 1.70229C73.3288 2.78707 73.9656 4.26305 74.0003 5.81436C74.0003 9.02039 71.3426 11.5834 68.1119 11.5834C64.8811 11.5834 62.2024 9.01737 62.2024 5.81436Z" fill="#231F20"/>
<path d="M80.1928 3.64985V6.50268H85.7063C85.7599 6.49595 85.8143 6.5005 85.8661 6.51604C85.9179 6.53159 85.9659 6.55779 86.0071 6.59299C86.0482 6.62818 86.0817 6.6716 86.1053 6.7205C86.1289 6.76939 86.1422 6.82269 86.1443 6.87702V9.26494C86.1405 9.31867 86.1261 9.3711 86.102 9.41916C86.0778 9.46721 86.0443 9.50993 86.0035 9.5448C85.9627 9.57967 85.9154 9.60598 85.8644 9.62221C85.8134 9.63843 85.7596 9.64424 85.7063 9.63928H80.1928V15.2785C80.1884 15.3343 80.1728 15.3887 80.1469 15.4382C80.121 15.4877 80.0854 15.5315 80.0422 15.5668C79.999 15.6021 79.9491 15.6281 79.8956 15.6435C79.8421 15.6588 79.7861 15.663 79.7309 15.6559H77.3311C77.2234 15.6627 77.1172 15.6271 77.035 15.5567C76.9527 15.4864 76.9008 15.3866 76.8901 15.2785V0.86344C76.8963 0.751834 76.9462 0.647246 77.0289 0.572563C77.1115 0.49788 77.2202 0.459186 77.3311 0.464949H86.8882C87.0045 0.454774 87.1201 0.490762 87.2103 0.565223C87.3006 0.639685 87.3583 0.746714 87.3712 0.86344V3.25136C87.3583 3.36809 87.3006 3.47512 87.2103 3.54958C87.1201 3.62404 87.0045 3.66003 86.8882 3.64985H80.1928Z" fill="#231F20"/>
<path d="M93.0884 3.64985V6.50268H98.6019C98.6555 6.49595 98.7099 6.5005 98.7616 6.51604C98.8134 6.53159 98.8614 6.55779 98.9026 6.59299C98.9438 6.62818 98.9772 6.6716 99.0008 6.7205C99.0245 6.76939 99.0377 6.82269 99.0398 6.87702V9.26494C99.036 9.31867 99.0217 9.3711 98.9975 9.41916C98.9733 9.46721 98.9398 9.50993 98.8991 9.5448C98.8583 9.57967 98.811 9.60598 98.7599 9.62221C98.7089 9.63843 98.6551 9.64424 98.6019 9.63928H93.0884V15.2785C93.0839 15.3343 93.0683 15.3887 93.0424 15.4382C93.0165 15.4877 92.9809 15.5315 92.9377 15.5668C92.8945 15.6021 92.8446 15.6281 92.7911 15.6435C92.7376 15.6588 92.6816 15.663 92.6264 15.6559H90.2266C90.1189 15.6627 90.0127 15.6271 89.9305 15.5567C89.8482 15.4864 89.7963 15.3866 89.7856 15.2785V0.86344C89.7918 0.751834 89.8417 0.647246 89.9244 0.572563C90.007 0.49788 90.1157 0.459186 90.2266 0.464949H99.7837C99.9 0.454774 100.016 0.490762 100.106 0.565223C100.196 0.639685 100.254 0.746714 100.267 0.86344V3.25136C100.254 3.36809 100.196 3.47512 100.106 3.54958C100.016 3.62404 99.9 3.66003 99.7837 3.64985H93.0884Z" fill="#231F20"/>
<path d="M105.983 3.47172V6.49059H111.5C111.554 6.4834 111.608 6.48761 111.661 6.50295C111.713 6.51829 111.761 6.54441 111.803 6.57965C111.844 6.6149 111.878 6.65847 111.902 6.7076C111.925 6.75672 111.939 6.81031 111.941 6.86493V9.18643C111.938 9.24071 111.923 9.29374 111.899 9.34236C111.875 9.39098 111.841 9.4342 111.8 9.46942C111.759 9.50465 111.711 9.53116 111.66 9.54738C111.608 9.56359 111.554 9.56917 111.5 9.56379H105.983V12.5585H112.685C112.741 12.5513 112.798 12.5554 112.853 12.5705C112.908 12.5855 112.959 12.6113 113.004 12.6464C113.049 12.6814 113.086 12.7251 113.115 12.7747C113.143 12.8244 113.161 12.8792 113.168 12.9359V15.2785C113.149 15.3911 113.089 15.4925 113 15.5624C112.91 15.6324 112.798 15.6658 112.685 15.6559H103.128C103.02 15.6618 102.915 15.6259 102.833 15.5556C102.752 15.4853 102.7 15.3861 102.69 15.2785V0.730594C102.693 0.676865 102.708 0.624434 102.732 0.576377C102.756 0.528319 102.79 0.485604 102.83 0.450736C102.871 0.415868 102.919 0.38955 102.97 0.373326C103.021 0.357102 103.074 0.351298 103.128 0.356255H112.685C112.798 0.341693 112.913 0.372906 113.003 0.443063C113.094 0.51322 113.153 0.616606 113.168 0.730594V3.09738C113.149 3.20994 113.089 3.31134 113 3.3813C112.91 3.45126 112.798 3.48463 112.685 3.47474H105.983V3.47172Z" fill="#231F20"/>
<path d="M119.055 3.47172V6.49059H124.568C124.622 6.48386 124.676 6.48841 124.728 6.50395C124.78 6.5195 124.828 6.5457 124.869 6.58089C124.91 6.61609 124.944 6.65951 124.967 6.7084C124.991 6.7573 125.004 6.8106 125.006 6.86493V9.18643C125.003 9.24043 124.989 9.29319 124.965 9.34159C124.941 9.39 124.907 9.43307 124.866 9.46825C124.826 9.50344 124.778 9.53002 124.727 9.54643C124.676 9.56284 124.622 9.56874 124.568 9.56379H119.055V12.5585H125.756C125.813 12.5513 125.87 12.5554 125.924 12.5705C125.979 12.5855 126.031 12.6113 126.075 12.6464C126.12 12.6814 126.158 12.7251 126.186 12.7747C126.214 12.8244 126.232 12.8792 126.239 12.9359V15.2785C126.221 15.3911 126.161 15.4925 126.071 15.5624C125.982 15.6324 125.869 15.6658 125.756 15.6559H116.199C116.091 15.6626 115.985 15.6271 115.903 15.5567C115.821 15.4864 115.769 15.3866 115.758 15.2785V0.730594C115.762 0.676585 115.776 0.623883 115.801 0.57561C115.825 0.527337 115.859 0.484477 115.9 0.449568C115.941 0.414659 115.989 0.388413 116.04 0.372384C116.091 0.356356 116.145 0.350871 116.199 0.356255H125.756C125.869 0.341693 125.984 0.372906 126.074 0.443063C126.165 0.51322 126.224 0.616606 126.239 0.730594V3.09738C126.221 3.20994 126.161 3.31134 126.071 3.3813C125.982 3.45126 125.869 3.48463 125.756 3.47474H119.055V3.47172Z" fill="#231F20"/>
<path d="M147.84 0.353199C147.946 0.347169 148.051 0.382657 148.133 0.452327C148.214 0.521998 148.266 0.620524 148.278 0.727538V15.2785C148.263 15.3843 148.21 15.4811 148.13 15.5507C148.049 15.6202 147.946 15.6576 147.84 15.6558H145.422C145.312 15.6623 145.204 15.6272 145.118 15.5574C145.033 15.4875 144.976 15.3881 144.96 15.2785V9.443H139.929V15.2785C139.913 15.3881 139.857 15.4875 139.771 15.5574C139.686 15.6272 139.577 15.6623 139.467 15.6558H137.068C136.958 15.6623 136.849 15.6272 136.764 15.5574C136.678 15.4875 136.622 15.3881 136.606 15.2785V0.730557C136.619 0.619656 136.674 0.51827 136.761 0.448248C136.847 0.378225 136.957 0.345174 137.068 0.356218H139.467C139.578 0.345963 139.688 0.379306 139.774 0.449183C139.86 0.519059 139.916 0.619979 139.929 0.730557V6.32451H144.96V0.730557C144.973 0.619979 145.029 0.519059 145.116 0.449183C145.202 0.379306 145.312 0.345963 145.422 0.356218H147.84V0.353199Z" fill="#231F20"/>
<path d="M154.627 5.81436C154.627 6.14975 154.692 6.48185 154.82 6.79172C154.947 7.10158 155.134 7.38312 155.37 7.62028C155.606 7.85744 155.885 8.04556 156.193 8.17391C156.501 8.30226 156.831 8.36832 157.164 8.36832C157.498 8.36832 157.828 8.30226 158.136 8.17391C158.443 8.04556 158.723 7.85744 158.959 7.62028C159.194 7.38312 159.381 7.10158 159.509 6.79172C159.637 6.48185 159.702 6.14975 159.702 5.81436C159.702 5.47897 159.637 5.14686 159.509 4.837C159.381 4.52714 159.194 4.24559 158.959 4.00844C158.723 3.77128 158.443 3.58315 158.136 3.45481C157.828 3.32646 157.498 3.2604 157.164 3.2604C156.831 3.2604 156.501 3.32646 156.193 3.45481C155.885 3.58315 155.606 3.77128 155.37 4.00844C155.134 4.24559 154.947 4.52714 154.82 4.837C154.692 5.14686 154.627 5.47897 154.627 5.81436ZM162.405 15.2785C162.386 15.3911 162.326 15.4924 162.237 15.5624C162.147 15.6324 162.035 15.6657 161.922 15.6559H152.296C152.185 15.6661 152.075 15.6323 151.989 15.5618C151.902 15.4913 151.847 15.3896 151.834 15.2785V12.8453C151.838 12.7884 151.853 12.7328 151.878 12.6819C151.903 12.6309 151.939 12.5855 151.982 12.5484C152.025 12.5113 152.075 12.4832 152.129 12.4657C152.183 12.4483 152.239 12.4419 152.296 12.4468H161.919C162.035 12.4374 162.15 12.4737 162.24 12.548C162.33 12.6223 162.388 12.7289 162.402 12.8453V15.2785H162.405ZM151.264 5.81436C151.299 4.26305 151.935 2.78707 153.038 1.70229C154.14 0.617516 155.621 0.0101318 157.163 0.0101318C158.705 0.0101318 160.185 0.617516 161.288 1.70229C162.39 2.78707 163.027 4.26305 163.062 5.81436C163.062 9.02039 160.404 11.5834 157.173 11.5834C153.943 11.5834 151.264 9.01737 151.264 5.81436Z" fill="#231F20"/>
<path d="M165.964 10.6566V0.863402C165.975 0.749979 166.03 0.645322 166.116 0.57113C166.202 0.496939 166.313 0.458904 166.426 0.464912H168.826C168.939 0.458904 169.05 0.496939 169.136 0.57113C169.222 0.645322 169.276 0.749979 169.288 0.863402V10.6143C169.385 11.2088 169.694 11.7471 170.159 12.1275C170.623 12.5079 171.209 12.7042 171.807 12.6792C173.058 12.6792 174.312 12.0151 174.312 10.6445V0.863402C174.324 0.749979 174.378 0.645322 174.464 0.57113C174.55 0.496939 174.661 0.458904 174.774 0.464912H177.192C177.302 0.462941 177.408 0.502948 177.49 0.576881C177.572 0.650815 177.623 0.753188 177.633 0.863402V10.6566C177.633 13.9502 175.107 15.8732 171.81 15.8732C168.58 15.8732 165.967 13.8626 165.967 10.6566" fill="#231F20"/>
<path d="M180.584 11.2755C180.588 11.2202 180.603 11.1664 180.629 11.1176C180.655 11.0688 180.691 11.0262 180.735 10.9928C180.779 10.9593 180.829 10.9356 180.883 10.9235C180.937 10.9113 180.992 10.9109 181.046 10.9223H183.446C183.549 10.9164 183.651 10.9492 183.732 11.0144C183.813 11.0796 183.867 11.1726 183.884 11.2755C183.929 12.2264 184.652 12.6913 185.51 12.6913C186.368 12.6913 187.136 12.1389 187.136 11.2332C187.136 10.3275 186.236 9.66338 185.51 9.59697C184.7 9.58809 183.9 9.41562 183.158 9.0898C182.371 8.72637 181.708 8.13836 181.25 7.3988C180.793 6.65924 180.561 5.8007 180.584 4.9298C180.584 1.9683 182.957 0.153961 185.528 0.153961C188.227 0.153961 190.36 1.98943 190.405 4.66414C190.392 4.77527 190.337 4.87694 190.251 4.94745C190.164 5.01795 190.054 5.05171 189.943 5.0415H187.57C187.46 5.04871 187.352 5.01385 187.266 4.94389C187.18 4.87393 187.124 4.77403 187.109 4.66414C187.064 3.75849 186.341 3.29358 185.528 3.29358C184.628 3.29358 183.902 3.8249 183.902 4.9298C183.9 5.14295 183.942 5.35418 184.024 5.55079C184.106 5.7474 184.226 5.92535 184.378 6.07394C184.53 6.22253 184.71 6.33871 184.907 6.41549C185.105 6.49227 185.316 6.52807 185.528 6.52075C186.323 6.5315 187.107 6.70401 187.834 7.02792C188.635 7.38911 189.311 7.98126 189.776 8.72936C190.242 9.47745 190.477 10.3478 190.45 11.2302C190.45 14.249 188.05 15.8732 185.528 15.8732C182.783 15.8068 180.629 14.2158 180.584 11.2755Z" fill="#231F20"/>
<path d="M196.5 3.47172V6.49059H202.013C202.067 6.4834 202.122 6.48761 202.174 6.50295C202.226 6.51829 202.274 6.54441 202.316 6.57965C202.357 6.61489 202.391 6.65847 202.415 6.7076C202.439 6.75672 202.452 6.81031 202.454 6.86493V9.18643C202.45 9.24056 202.436 9.29338 202.411 9.3418C202.387 9.39023 202.353 9.43327 202.312 9.46842C202.271 9.50357 202.224 9.53011 202.172 9.54649C202.121 9.56286 202.067 9.56875 202.013 9.56379H196.5V12.5585H203.201C203.314 12.5448 203.428 12.5769 203.518 12.6476C203.608 12.7183 203.667 12.8219 203.681 12.9359V15.2785C203.662 15.3911 203.602 15.4925 203.513 15.5624C203.423 15.6324 203.311 15.6658 203.198 15.6559H193.644C193.536 15.6626 193.43 15.6271 193.348 15.5567C193.265 15.4864 193.214 15.3866 193.203 15.2785V0.730592C193.207 0.676582 193.221 0.62388 193.245 0.575607C193.27 0.527335 193.304 0.484474 193.345 0.449565C193.386 0.414657 193.433 0.38841 193.485 0.372382C193.536 0.356353 193.59 0.350868 193.644 0.356252H203.201C203.314 0.342546 203.427 0.374156 203.517 0.444231C203.607 0.514305 203.666 0.617194 203.681 0.730592V3.09738C203.662 3.20994 203.602 3.31133 203.513 3.3813C203.423 3.45126 203.311 3.48463 203.198 3.47474H196.5V3.47172Z" fill="#231F20"/>
</svg>
