<svg width="10" height="18" viewBox="0 0 10 18" fill="none" xmlns="http://www.w3.org/2000/svg">
<path d="M6.15755 17.5714H3.4069C2.94746 17.5714 2.57371 17.1976 2.57371 16.7382V10.534H0.96893C0.509484 10.534 0.135742 10.1601 0.135742 9.70077V7.04224C0.135742 6.5828 0.509484 6.20906 0.96893 6.20906H2.57371V4.87777C2.57371 3.55774 2.98821 2.43468 3.77226 1.63019C4.55984 0.822036 5.66049 0.394958 6.95522 0.394958L9.053 0.398366C9.51166 0.399152 9.88475 0.772894 9.88475 1.23155V3.69993C9.88475 4.15937 9.51114 4.53312 9.05182 4.53312L7.63941 4.53364C7.20867 4.53364 7.09898 4.62 7.07552 4.64647C7.03686 4.69037 6.99087 4.81447 6.99087 5.15715V6.20893H8.94567C9.09284 6.20893 9.23542 6.24523 9.35794 6.31363C9.62226 6.46132 9.78659 6.74058 9.78659 7.04238L9.78555 9.7009C9.78555 10.1601 9.4118 10.5338 8.95236 10.5338H6.99087V16.7382C6.99087 17.1976 6.61699 17.5714 6.15755 17.5714ZM3.58067 16.5644H5.98378V10.0832C5.98378 9.77638 6.23342 9.52687 6.54007 9.52687H8.77859L8.77951 7.21601H6.53994C6.23329 7.21601 5.98378 6.9665 5.98378 6.65972V5.15715C5.98378 4.76376 6.02375 4.31637 6.3207 3.9801C6.6795 3.5736 7.24497 3.52669 7.63915 3.52669L8.87779 3.52616V1.40506L6.95444 1.40191C4.8737 1.40191 3.58067 2.73386 3.58067 4.87777V6.65972C3.58067 6.96637 3.33116 7.21601 3.02451 7.21601H1.1427V9.52687H3.02451C3.33116 9.52687 3.58067 9.77638 3.58067 10.0832V16.5644ZM9.05103 1.40532H9.05117H9.05103Z" fill="#595959"/>
</svg>
