<svg width="14" height="14" viewBox="0 0 14 14" fill="none" xmlns="http://www.w3.org/2000/svg">
<path d="M3.15737 6.13564C4.18594 8.15706 5.84308 9.80706 7.86451 10.8428L9.43594 9.27135C9.6288 9.07849 9.91451 9.01421 10.1645 9.09992C10.9645 9.36421 11.8288 9.50706 12.7145 9.50706C13.1074 9.50706 13.4288 9.82849 13.4288 10.2214V12.7142C13.4288 13.1071 13.1074 13.4285 12.7145 13.4285C6.00737 13.4285 0.571655 7.99278 0.571655 1.28564C0.571655 0.892779 0.893084 0.57135 1.28594 0.57135H3.78594C4.1788 0.57135 4.50023 0.892779 4.50023 1.28564C4.50023 2.17849 4.64308 3.03564 4.90737 3.83564C4.98594 4.08564 4.9288 4.36421 4.7288 4.56421L3.15737 6.13564Z" fill="#595959"/>
</svg>
